<?xml version="1.0" encoding="utf-8"?>
<!-- Generator: Adobe Illustrator 22.0.0, SVG Export Plug-In . SVG Version: 6.00 Build 0)  -->
<svg version="1.1" xmlns="http://www.w3.org/2000/svg" xmlns:xlink="http://www.w3.org/1999/xlink" x="0px" y="0px"
	 viewBox="0 0 50 50" style="enable-background:new 0 0 50 50;" xml:space="preserve">
<style type="text/css">
	.st0{display:none;}
	.st1{display:inline;fill:#828282;}
	.st2{display:inline;}
	.st3{fill:#828282;}
</style>
<g id="Layer_1">
</g>
<g id="envato" class="st0">
	<path class="st1" d="M24.6,48.8c-6.7,0-11.3-3.2-14-6c-3.2-3.2-5-7.1-5.5-8.9c-0.4-1.6-0.8-5.3-0.2-9.1c0.7-4.8,2.8-8.3,5.9-10
		l1.2-0.7l-0.4,1.3c0,0.1-3.3,10,1.8,16c0-2.4,0.3-7.5,3.2-13.1C21.4,9,27.6,3.8,36.3,2l0,0c0.3,0,2.6-0.3,3.8,0.9
		c1.3,1.3,5.6,6.7,4.8,20.8C44.5,31.3,43,37,40.3,41.1c-3.1,4.7-8,7.3-14.5,7.7C25.4,48.7,25,48.8,24.6,48.8z M10.2,16.4
		c-5.2,4.2-4.8,14.1-4,17.3c0.7,2.9,6.2,14.1,18.4,14.1c0.4,0,0.8,0,1.2,0c11.5-0.7,17.3-8.3,18.1-24c0.8-14-3.6-19.1-4.5-20
		c-0.7-0.7-2.3-0.7-2.9-0.6c-8.3,1.8-14.3,6.8-19,15.7c-3.8,7.3-3.1,13.8-3,13.9l0.2,1.4l-1-0.9c-2.9-2.6-4.3-6.6-4.1-11.5
		C9.5,19.4,9.9,17.6,10.2,16.4z"/>
</g>
<g id="support" class="st0">
	<g class="st2">
		<path class="st3" d="M24.2,40.2c-8,0-14.5-6.5-14.5-14.5s6.5-14.5,14.5-14.5s14.5,6.5,14.5,14.5S32.2,40.2,24.2,40.2z M24,12.8
			c-7,0-12.7,5.7-12.7,12.7S17,38.3,24,38.3s12.7-5.7,12.7-12.7S31,12.8,24,12.8z"/>
	</g>
	<g class="st2">
		<path class="st3" d="M24.2,48c-12.1,0-22-9.9-22-22S12,4,24.2,4s22,9.9,22,22S36.3,48,24.2,48z M24.2,5.6
			c-11.1,0-20.1,9-20.1,20.1s9,20.1,20.1,20.1s20.1-9,20.1-20.1S35.2,5.6,24.2,5.6z"/>
	</g>
	<g class="st2">
		<path class="st3" d="M21.2,39.8C20.4,41,19,43.2,19,45.4l-2.1,0.8c-0.3-0.3-0.4-0.7-0.3-1.1c0.9-3,2-5.3,3.3-6.9
			c0.4-0.4,0.6,0.1,1.1,0.5L21.2,39.8z M31.2,46.5L29,45.4c0-2.2-1.7-4.8-2.2-5.6l0.2-1.1c0.5-0.2,0.9-0.8,1.3-0.4
			c0.1,0.1,2,2.4,3.3,7c0.2,0.6-0.1,1.1-0.7,1.3L31.2,46.5z M17.6,45.4L17.6,45.4L17.6,45.4z"/>
	</g>
	<g class="st2">
		<path class="st3" d="M26.4,11.9c0.8-1.1,3-3.6,2.8-6.1h1.5c0.3,0.3,1-0.1,0.9,0.3c-0.9,3-2,5.3-3.3,6.9c-0.4,0.4-0.8,0.4-1.3,0.1
			L26.4,11.9z M19.1,5.8c0,2.2,1.9,5.3,2.4,6.1l-0.6,0.6c-0.5,0.2-0.7,0.8-1.1,0.4c-0.1-0.1-2-2.4-3.3-7c-0.2-0.6,0.2,0.1,0.7-0.1
			H19.1z M30.5,5.8L30.5,5.8L30.5,5.8z"/>
	</g>
	<g class="st2">
		<path class="st3" d="M38,29c1.1,0.8,3.6,3,6.1,2.8v2.1c-0.3,0.3,0.1,0.5-0.3,0.3c-3-0.9-5.3-2-6.9-3.3c-0.4-0.4-0.6-1-0.2-1.5
			L38,29z M44.6,19.2L44,21.7c-2.2,0-5.3,1.9-6.1,2.4l-0.6,0c-0.2-0.5-0.8-1.3-0.4-1.6c0.1-0.1,2.4-2,7-3.3c0.6-0.2,0.5,0.2,0.7,0.7
			V19.2z M44,33.1L44,33.1L44,33.1z"/>
	</g>
	<g class="st2">
		<path class="st3" d="M10,23.7c-1.1-0.8-3.6-3-6.1-2.8l0.6-1.7c0.3-0.3-0.7-0.8-0.3-0.7c3,0.9,5.3,2,6.9,3.3c0.4,0.4,0.6,1,0.2,1.5
			L10,23.7z M3.9,32.6V31c2.2,0,5.9-2.1,6.7-2.6l0.7,0.5c0.2,0.5,0.1,1-0.3,1.4c-0.1,0.1-2.4,2-7,3.3C3.4,33.7,4.1,33.1,3.9,32.6
			L3.9,32.6z M3.9,19.6L3.9,19.6L3.9,19.6z"/>
	</g>
</g>
<g id="customizesion">
	<g>
		<g>
			<path class="st3" d="M46.9,36.1c-0.4-1.2-1-2.3-1.9-3.2c-1.4-1.4-3.4-2.2-5.4-2.2c-1,0-2.1,0.2-3,0.6L29,23.7l10-9.9l2.4-0.1
				c0.3,0,0.5-0.2,0.7-0.4l3.4-5.7c0.2-0.3,0.1-0.7-0.1-1l-2.9-2.9c-0.3-0.3-0.7-0.3-1-0.1L35.7,7c-0.2,0.1-0.4,0.4-0.4,0.7L35.2,10
				l-10,10l-6.8-6.8C19.1,9,16.3,5,12.1,4.3c-1.9-0.3-3.9,0.1-5.5,1.2C6.2,5.7,6.1,6.2,6.4,6.6c0.1,0.1,0.2,0.2,0.3,0.3L10.4,9
				c0.8,0.5,1,1.9,0.3,3.1c-0.7,1.2-2,1.8-2.8,1.4l-3.5-1.9c-0.4-0.2-0.9-0.1-1.1,0.3c-0.1,0.1-0.1,0.3-0.1,0.5
				c0.3,4.2,3.9,7.4,8.1,7.2c0.9-0.1,1.7-0.3,2.5-0.6l6.2,6.2l-2.7,2.7l-0.6-0.6c-0.7-0.6-1.7-0.6-2.4,0L13.5,28
				c-0.6,0.6-0.7,1.6-0.1,2.3l-9.9,9.9c-0.7,0.6-0.7,1.7-0.1,2.4c0,0,0,0,0.1,0.1l2.8,2.8C7,46.2,8,46.2,8.7,45.5c0,0,0,0,0.1-0.1
				l9.9-9.9c0.7,0.6,1.7,0.5,2.3-0.1l0.8-0.8c0.7-0.6,0.7-1.7,0.1-2.4c0,0,0,0-0.1-0.1l-0.6-0.6l2.7-2.7L32,37
				c-0.7,4.2,2.1,8.1,6.3,8.8c2.5,0.4,5-0.4,6.7-2.2c0.3-0.3,0.3-0.9-0.1-1.2c-0.1-0.1-0.2-0.1-0.3-0.2L39.9,41
				c-0.5-0.1-0.8-0.5-1-1c-0.2-0.6-0.3-1.3-0.1-2c0.4-1.3,1.5-2.3,2.4-2l4.7,1.3c0.1,0,0.2,0,0.2,0c0.5,0,0.8-0.4,0.8-0.8
				C47,36.4,47,36.2,46.9,36.1z M36.6,10.9c0.2-0.2,0.2-0.4,0.2-0.6l0.1-2.2l4.7-2.8l2,2l-2.8,4.7l-2.3,0.1c-0.2,0-0.4,0.1-0.6,0.2
				L27.8,22.6l-1.4-1.4L36.6,10.9z M7.6,44.3l-2.9-2.9l10-9.9l1.4,1.4l1.4,1.4L7.6,44.3z M19.8,34.3l-1.1-1.1l-0.4-0.4l-3.5-3.5
				l0.8-0.8l5,5.1L19.8,34.3z M20,30.4L18.5,29l2.7-2.7l1.4,1.4L20,30.4z M41.7,34.5c-0.2-0.1-0.5-0.1-0.8-0.1
				c-1.8,0.1-3.3,1.5-3.7,3.3c-0.3,1-0.2,2.1,0.2,3.1c0.4,0.9,1.1,1.6,2.1,1.9l3.1,0.8c-2.8,1.7-6.5,0.8-8.2-2.1
				c-0.8-1.3-1-2.9-0.7-4.4c0.1-0.3,0-0.6-0.2-0.8L14.6,17.3c-0.3-0.3-0.7-0.3-1-0.1c-0.9,0.5-1.8,0.7-2.8,0.7
				c-2.5,0-4.8-1.6-5.6-3.9L7.1,15c0.4,0.2,0.9,0.4,1.5,0.4c1.5-0.1,2.9-1,3.6-2.4c1.1-2,0.7-4.5-1-5.4L8.8,6.2
				c3.1-1.1,6.5,0.5,7.6,3.6c0.4,1.1,0.5,2.2,0.2,3.4c-0.1,0.3,0,0.6,0.2,0.8l18.9,18.9c0.3,0.3,0.7,0.3,1,0.2
				c0.9-0.5,1.8-0.7,2.8-0.7c2.1,0,4.1,1.1,5.2,2.9L41.7,34.5z"/>
		</g>
	</g>
</g>
<g id="Layer_4">
</g>
</svg>
